<svg xmlns="http://www.w3.org/2000/svg" xmlns:xlink="http://www.w3.org/1999/xlink" viewBox="0 0 214.21 92.79"><defs><style>      .st0 {        fill: none;      }      .st1 {        fill: url(#linear-gradient2);      }      .st2 {        fill: url(#linear-gradient1);      }      .st3 {        fill: url(#radial-gradient);      }      .st3, .st4, .st5 {        mix-blend-mode: multiply;      }      .st4 {        opacity: .1;      }      .st6 {        fill: url(#linear-gradient);      }      .st7 {        fill: #1e1e1e;      }      .st8 {        isolation: isolate;      }      .st9 {        clip-path: url(#clippath-1);      }      .st10 {        clip-path: url(#clippath-3);      }      .st11 {        clip-path: url(#clippath-4);      }      .st12 {        clip-path: url(#clippath-2);      }      .st13 {        clip-path: url(#clippath-5);      }      .st5 {        fill: url(#radial-gradient2);      }      .st14 {        fill: url(#radial-gradient1);      }      .st15 {        fill: url(#radial-gradient3);      }      .st16 {        clip-path: url(#clippath);      }    </style><linearGradient id="linear-gradient" x1="23.84" y1="72.8" x2="76.68" y2="19.96" gradientUnits="userSpaceOnUse"><stop offset="0" stop-color="#7743db"></stop><stop offset=".53" stop-color="#ba43ce"></stop><stop offset="1" stop-color="#f143c4"></stop></linearGradient><clipPath id="clippath"><polygon class="st0" points="72.89 57.71 61.57 46.38 50.26 57.69 61.61 69.04 72.92 57.73 72.89 57.71"></polygon></clipPath><linearGradient id="linear-gradient1" x1="60.65" y1="56.77" x2="44.61" y2="40.73" gradientUnits="userSpaceOnUse"><stop offset="0" stop-color="#8e003d" stop-opacity="0"></stop><stop offset=".1" stop-color="#6b002e" stop-opacity=".24"></stop><stop offset="1" stop-color="#000"></stop></linearGradient><clipPath id="clippath-1"><polyline class="st0" points="27.61 35.04 38.96 46.38 50.26 35.08 38.91 23.73 27.56 35.08"></polyline></clipPath><linearGradient id="linear-gradient2" x1="55.92" y1="52.03" x2="39.73" y2="35.84" gradientUnits="userSpaceOnUse"><stop offset="0" stop-color="#000"></stop><stop offset=".89" stop-color="#68002c" stop-opacity=".27"></stop><stop offset="1" stop-color="#8e003d" stop-opacity="0"></stop></linearGradient><clipPath id="clippath-2"><path class="st0" d="M71.03,69.05c-5.81,0-11.62-2.21-16.04-6.63h0c1.3,1.3,1.96,3.02,1.96,4.73s-.65,3.43-1.96,4.73c-1.26,1.26-2.94,1.96-4.73,1.96h0v15.98c5.81,0,11.62-2.21,16.04-6.63,3.96-3.96,6.14-9.03,6.55-14.21-.61.05-1.21.08-1.82.08Z"></path></clipPath><radialGradient id="radial-gradient" cx="-121.04" cy="-125.24" fx="-121.04" fy="-125.24" r="12.67" gradientTransform="translate(-69.48 -102.18) rotate(-74.13) scale(1 -1.4)" gradientUnits="userSpaceOnUse"><stop offset="0" stop-color="#000"></stop><stop offset="1" stop-color="#a9005f" stop-opacity="0"></stop></radialGradient><clipPath id="clippath-3"><path class="st0" d="M71.03,23.72c-5.81,0-11.62,2.21-16.04,6.63h0c1.3-1.3,1.96-3.02,1.96-4.73s-.65-3.43-1.96-4.73c-1.26-1.26-2.94-1.96-4.73-1.96h0V2.95c5.81,0,11.62,2.21,16.04,6.63,3.96,3.96,6.14,9.03,6.55,14.21-.61-.05-1.21-.08-1.82-.08Z"></path></clipPath><radialGradient id="radial-gradient1" cx="-122.04" cy="-125.24" fx="-122.04" fy="-125.24" r="12.67" gradientTransform="translate(-69.21 195.91) rotate(74.13) scale(1 1.4)" gradientUnits="userSpaceOnUse"><stop offset="0" stop-color="#000"></stop><stop offset="1" stop-color="#8e003d" stop-opacity="0"></stop></radialGradient><clipPath id="clippath-4"><path class="st0" d="M27.6,25.62c0,5.81,2.21,11.62,6.63,16.04h0c-1.3-1.3-3.02-1.96-4.73-1.96s-3.43.65-4.73,1.96c-1.26,1.26-1.96,2.94-1.96,4.73h0s-15.98,0-15.98,0c0-5.81,2.21-11.62,6.63-16.04,3.96-3.96,9.03-6.14,14.21-6.55-.05.61-.08,1.21-.08,1.82Z"></path></clipPath><radialGradient id="radial-gradient2" cx="34.32" cy="30.12" fx="34.32" fy="30.12" r="12.67" gradientTransform="translate(-10.25 -1.16) rotate(-15.87) scale(1 1.4)" gradientUnits="userSpaceOnUse"><stop offset="0" stop-color="#000"></stop><stop offset="1" stop-color="#b8005f" stop-opacity="0"></stop></radialGradient><clipPath id="clippath-5"><path class="st0" d="M29.49,69.05c5.81,0,11.62-2.21,16.04-6.63h0c-1.3,1.3-1.96,3.02-1.96,4.73s.65,3.43,1.96,4.73c1.26,1.26,2.94,1.96,4.73,1.96h0v15.98c-5.81,0-11.62-2.21-16.04-6.63-3.96-3.96-6.14-9.03-6.55-14.21.61.05,1.21.08,1.82.08Z"></path></clipPath><radialGradient id="radial-gradient3" cx="-121.04" cy="186.48" fx="-121.04" fy="186.48" r="12.67" gradientTransform="translate(-250.89 17.48) rotate(-105.87) scale(1 1.4)" gradientUnits="userSpaceOnUse"><stop offset="0" stop-color="#000"></stop><stop offset="1" stop-color="#510fca" stop-opacity="0"></stop></radialGradient></defs><g class="st8"><g id="Layer_1"><g><g><path class="st7" d="M146.79,33.95c.62,0,.78.17.67.9l-4.93,23.73c-1.18,5.55-2.02,6.34-6.56,6.34-4.93,0-5.22-.73-6.51-6.34l-3.65-15.71-3.64,15.71c-1.29,5.61-1.57,6.34-6.51,6.34-4.49,0-5.39-.78-6.56-6.34l-4.94-23.73c-.11-.73.06-.9.67-.9h4.1c.39,0,.5.17.67.9l4.6,23.05c.45,1.96.79,2.13,1.51,2.13.96,0,1.07-.17,1.51-2.13l5.44-22.15c.17-.67.39-.9.79-.9h4.71c.45,0,.62.22.79.9l5.44,22.15c.45,1.96.56,2.13,1.51,2.13.73,0,1.07-.17,1.51-2.13l4.6-23.05c.17-.73.28-.9.73-.9h4.04Z"></path><path class="st7" d="M173.06,42.47v19.63c0,.51,0,1.18-1.07,1.57-1.96.73-6.84,1.23-12.45,1.23-7.4,0-10.82-1.51-10.82-9.03,0-6.73,3.53-8.64,9.93-8.64l9.03-.06v-3.76c0-3.48-2.02-5.05-7.29-5.05h-8.41c-.67,0-.84-.17-.84-.84v-2.3c0-.67.22-.79.79-.9,3.31-.56,6.11-.67,8.47-.67,8.75,0,12.68,2.69,12.68,8.81ZM158.76,51.56c-3.09,0-4.71,1.01-4.71,4.21,0,3.7,1.85,4.55,6.45,4.55,1.74,0,5.05-.11,7.18-.67v-8.08h-8.92Z"></path><path class="st7" d="M195.31,22.39c.5.11.73.39.73.9v2.47c0,.56-.28.84-.84.84h-3.09c-3.2,0-4.71.22-4.71,3.03v4.38h7.18c.62,0,.84.28.73.9l-.45,2.69c-.11.5-.39.73-.9.73h-6.56v25.47c0,.56-.28.84-.84.84h-3.7c-.56,0-.84-.28-.84-.84v-25.47h-3.98c-.56,0-.84-.28-.84-.84v-2.64c0-.56.28-.84.84-.84h3.98v-5.55c0-6.28,5.16-6.56,8.36-6.56,1.57,0,3.54.22,4.94.5Z"></path><path class="st7" d="M207.4,24.97c0,2.13-1.12,3.31-3.31,3.31s-3.31-1.18-3.31-3.31,1.18-3.26,3.31-3.26,3.31,1.12,3.31,3.26ZM205.95,33.95c.56,0,.84.28.84.84v29c0,.56-.28.84-.84.84h-3.7c-.56,0-.84-.28-.84-.84v-29c0-.56.28-.84.84-.84h3.7Z"></path></g><g><path class="st6" d="M87.07,30.35c-3.96-3.96-9.03-6.14-14.21-6.55-.41-5.19-2.6-10.26-6.55-14.21C57.46.74,43.07.74,34.23,9.58c-3.96,3.96-6.14,9.03-6.55,14.21-5.19.41-10.26,2.59-14.21,6.55-8.84,8.84-8.84,23.23,0,32.07,3.96,3.96,9.03,6.14,14.21,6.55.41,5.19,2.6,10.26,6.55,14.21,4.42,4.42,10.23,6.63,16.04,6.63s11.61-2.21,16.04-6.63c3.96-3.96,6.14-9.03,6.55-14.21,5.19-.41,10.26-2.6,14.21-6.55,8.84-8.84,8.84-23.23,0-32.07ZM34.23,51.12c-1.26,1.26-2.94,1.96-4.73,1.96s-3.47-.7-4.73-1.96c-1.26-1.26-1.96-2.94-1.96-4.73s.7-3.47,1.96-4.73c1.3-1.3,3.02-1.96,4.73-1.96s3.43.65,4.73,1.96l4.73,4.73-4.73,4.73ZM54.99,71.88c-2.61,2.61-6.85,2.61-9.46,0-2.61-2.61-2.61-6.85,0-9.46l4.73-4.73h0s0,0,0,0l4.73,4.73c2.61,2.61,2.61,6.85,0,9.46ZM54.99,30.35l-4.73,4.73-4.73-4.73c-2.61-2.61-2.61-6.85,0-9.46,1.26-1.26,2.94-1.96,4.73-1.96s3.47.7,4.73,1.96c1.26,1.26,1.96,2.94,1.96,4.73s-.7,3.47-1.96,4.73ZM75.76,51.12c-2.61,2.61-6.85,2.61-9.46,0l-4.73-4.73h0s0,0,0,0l4.73-4.73c2.61-2.61,6.85-2.61,9.46,0,2.61,2.61,2.61,6.85,0,9.46Z"></path><path class="st4" d="M46.33,61.61l9.58-9.58,5.21,5.21c6,6,15.72,6,21.72,0h0c6-6,6-15.72,0-21.72h0c-6-6-15.72-6-21.72,0l-10.86,10.86-10.86,10.86c-6,6-15.72,6-21.72,0h0c-6-6-6-15.72,0-21.72h0c2.92-2.92,6.73-4.42,10.57-4.49-.58-2.37-.77-4.82-.58-7.25-5.19.41-10.27,2.59-14.23,6.56-4.28,4.28-6.64,9.98-6.64,16.04s2.36,11.75,6.64,16.04c8.84,8.84,23.23,8.84,32.08,0l.81-.81h0ZM66.3,41.65c2.61-2.61,6.85-2.61,9.47,0h0c1.31,1.31,1.96,3.02,1.96,4.73s-.65,3.43-1.96,4.73h0c-2.61,2.61-6.85,2.61-9.47,0l-4.73-4.73,4.73-4.73Z"></path><path class="st4" d="M72.86,68.98c-.41,5.19-2.6,10.26-6.55,14.22-4.28,4.28-9.98,6.64-16.04,6.64s-11.76-2.36-16.04-6.64c-3.96-3.96-6.14-9.04-6.56-14.23,2.42.19,4.87,0,7.25-.58.07,3.83,1.57,7.64,4.49,10.57h0c6,6,15.72,6,21.72,0h0c2.92-2.92,4.42-6.73,4.49-10.56,2.37.58,4.82.77,7.25.58ZM39.4,35.53c-6-6-6-15.72,0-21.72h0c6-6,15.72-6,21.72,0h0c2.92,2.92,4.42,6.73,4.49,10.56-3.89.95-7.58,2.94-10.61,5.98l-4.73,4.73-5.65,5.65-5.21-5.21ZM45.53,30.35l4.73,4.73,4.73-4.73c2.61-2.61,2.61-6.85,0-9.47h0c-1.31-1.31-3.02-1.96-4.73-1.96-1.71,0-3.43.65-4.73,1.96h0c-2.61,2.61-2.61,6.85,0,9.47Z"></path><g class="st16"><polygon class="st2" points="66.3 51.12 61.57 46.38 38.96 46.38 54.99 62.42 66.3 51.12"></polygon></g><g class="st9"><path class="st1" d="M45.39,30.19l-11.31,11.31c.05.05.1.1.15.16l16.04,16.04v-22.61l-4.73-4.73c-.05-.05-.09-.11-.14-.16Z"></path></g><g class="st12"><path class="st3" d="M50.26,73.84h0c1.79,0,3.47-.7,4.73-1.96,1.3-1.3,1.96-3.02,1.96-4.73s-.65-3.43-1.96-4.73l-4.73-4.73v-22.61l16.04,16.04c8.84,8.84,8.84,23.23,0,32.07-4.42,4.42-10.23,6.63-16.04,6.63v-15.98Z"></path></g><g class="st10"><path class="st14" d="M50.26,18.93h0c1.79,0,3.47.7,4.73,1.96,1.3,1.3,1.96,3.02,1.96,4.73s-.65,3.43-1.96,4.73l-4.73,4.73v22.61l16.04-16.04c8.84-8.84,8.84-23.23,0-32.07-4.42-4.42-10.23-6.63-16.04-6.63v15.98Z"></path></g><g class="st11"><path class="st5" d="M22.81,46.38h0c0-1.79.7-3.47,1.96-4.73,1.3-1.3,3.02-1.96,4.73-1.96s3.43.65,4.73,1.96l4.73,4.73h22.61l-16.04-16.04c-8.84-8.84-23.23-8.84-32.07,0-4.42,4.42-6.63,10.23-6.63,16.04h15.98Z"></path></g><g class="st13"><path class="st15" d="M50.26,73.84h0c-1.79,0-3.47-.7-4.73-1.96-1.3-1.3-1.96-3.02-1.96-4.73s.65-3.43,1.96-4.73l4.73-4.73v-22.61l-16.04,16.04c-8.84,8.84-8.84,23.23,0,32.07,4.42,4.42,10.23,6.63,16.04,6.63v-15.98Z"></path></g></g></g></g></g></svg>